<svg id="Layer_1" data-name="Layer 1" xmlns="http://www.w3.org/2000/svg" viewBox="0 0 400.69 124.03"><defs><style>.cls-1{fill:#ccc;stroke:#ccc;}.cls-1,.cls-2{stroke-linecap:round;stroke-linejoin:round;stroke-width:2px;}.cls-2{fill:#fff;stroke:#010101;}.cls-3{fill:#231f20;}</style></defs><path class="cls-1" d="M394.83,13.64c9.16,0,18,10.79,18,20.29l-8.31,56.9c0,9.49-11.88,17.94-21.05,17.94L355.07,108,327.52,127.5l4.39-19.93-18.65-.34c-9.16,0-15-6.9-15-16.4L293,37.07C293,27.57,300.34,20,309.5,20l85.33-6.31Z" transform="translate(-19.99 -7.15)"/><path class="cls-2" d="M401.66,8.15c9.16,0,18,10.78,18,20.28l-8.32,56.9c0,9.5-11.88,17.94-21,17.94l-28.43-.82L334.35,122l4.39-19.93-18.65-.34c-9.16,0-15-6.89-15-16.39l-5.25-53.77c0-9.5,7.34-17.12,16.5-17.12l85.34-6.3Z" transform="translate(-19.99 -7.15)"/><path class="cls-3" d="M312.62,34.09h26.14v5.26H318.89V55.48h18.36v5.18H318.89v22h-6.27Z" transform="translate(-19.99 -7.15)"/><path class="cls-3" d="M352.66,38a3.93,3.93,0,0,1-7.85,0,3.86,3.86,0,0,1,4-4A3.77,3.77,0,0,1,352.66,38ZM345.6,82.63V47.78h6.33V82.63Z" transform="translate(-19.99 -7.15)"/><path class="cls-3" d="M368.71,63.76h.14c.87-1.22,2.09-2.74,3.1-4l10.23-12h7.63L376.34,62.1l15.34,20.53H384L372,65.92l-3.24,3.6V82.63h-6.26V31.5h6.26Z" transform="translate(-19.99 -7.15)"/><path class="cls-3" d="M404.49,38a3.92,3.92,0,0,1-7.84,0,3.86,3.86,0,0,1,4-4A3.76,3.76,0,0,1,404.49,38Zm-7.05,44.65V47.78h6.33V82.63Z" transform="translate(-19.99 -7.15)"/><path class="cls-3" d="M48.82,102.91q4.84.07,9.28.07c3.86,0,7.09,0,9.67-.07q-.93,11.78-1.32,26.16-5.84,1.16-10.54,1.63t-8,.48a48.35,48.35,0,0,1-11.47-1.3,23,23,0,0,1-9-4.22A18.51,18.51,0,0,1,21.9,118a27.61,27.61,0,0,1-.49-18.83,25.44,25.44,0,0,1,4.22-7.73,24.25,24.25,0,0,1,6.75-5.86,26.35,26.35,0,0,1,8.4-3.2,49.81,49.81,0,0,1,9.41-.86,78.69,78.69,0,0,1,15.68,1.83q0,4,.38,8.37a47.81,47.81,0,0,0-15-2.78,26.66,26.66,0,0,0-8.17,1.23A17.55,17.55,0,0,0,36.42,94a16.76,16.76,0,0,0-4.25,6.4,22,22,0,0,0-1.46,7.9,19,19,0,0,0,1.67,8.1A11.7,11.7,0,0,0,38,121.9a20,20,0,0,0,9,2,34.63,34.63,0,0,0,4.4-.33,34.25,34.25,0,0,0,5.27-1.14l.58-12.34-2.78,0c-1.58,0-3.57,0-6,.11Q48.82,105.41,48.82,102.91Z" transform="translate(-19.99 -7.15)"/><path class="cls-3" d="M78.1,102.42c.33-1.69.53-2.87.62-3.55s.23-1.71.44-3.1a83,83,0,0,1,8.43-1.58,58,58,0,0,1,7.07-.45,26.44,26.44,0,0,1,7.1.89,10.47,10.47,0,0,1,5.06,2.87,8,8,0,0,1,1.83,5.66c0,1.33-.18,4.74-.56,10.21s-.59,11.13-.66,17c-1.78,0-3.43-.07-4.93-.07s-3.1,0-5,.07q.47-4.25.75-9.84l.46-8.75q-1.34.87-2,1.23a14,14,0,0,1-1.58.65c-.59.2-1.62.5-3.1.91s-2.66.77-3.55,1.07a15.87,15.87,0,0,0-2.41,1,8.31,8.31,0,0,0-1.82,1.3,4.62,4.62,0,0,0-1.07,1.51,4.42,4.42,0,0,0-.33,1.71,3.93,3.93,0,0,0,.86,2.55,4.48,4.48,0,0,0,2.16,1.49,10,10,0,0,0,3.06.42,18.1,18.1,0,0,0,2.37-.17,20.61,20.61,0,0,0,3.36-.88,60.1,60.1,0,0,0-1.72,6c-1.67.29-3,.46-4,.53s-1.89.11-2.74.11a18.83,18.83,0,0,1-7.27-1.2,8.09,8.09,0,0,1-4.21-3.8A11.25,11.25,0,0,1,73.32,121a9,9,0,0,1,2.08-5.7A13.69,13.69,0,0,1,78,112.88a19.77,19.77,0,0,1,4.68-2.22,72.47,72.47,0,0,1,8.09-2.16c.89-.19,1.82-.41,2.78-.68a17.14,17.14,0,0,0,2.31-.8,5,5,0,0,0,1.49-1,4.29,4.29,0,0,0,.93-1.28,3.32,3.32,0,0,0,.3-1.37,3.27,3.27,0,0,0-.89-2.32,4.84,4.84,0,0,0-2.33-1.32,12.38,12.38,0,0,0-3.15-.37A38.85,38.85,0,0,0,78.1,102.42Z" transform="translate(-19.99 -7.15)"/><path class="cls-3" d="M116.28,130.33q.5-6,1-17.86t.54-17.89c2,0,3.61.07,4.85.07,1.43,0,3,0,4.65-.07l-.28,5.66a26,26,0,0,1,2.06-2.69,10.28,10.28,0,0,1,2.41-1.92A13.3,13.3,0,0,1,135,94.25a16.37,16.37,0,0,1,4.09-.51,16,16,0,0,1,3.06.29,12.29,12.29,0,0,1,2.69.85,9,9,0,0,1,2.07,1.25,7.65,7.65,0,0,1,1.46,1.56,14.33,14.33,0,0,1,1.3,2.55,23.62,23.62,0,0,1,1.43-2.06,10.46,10.46,0,0,1,1.74-1.7A10.74,10.74,0,0,1,155.27,95a13.82,13.82,0,0,1,3-.93,17.74,17.74,0,0,1,3.46-.33,16.38,16.38,0,0,1,5.76,1,8.86,8.86,0,0,1,4.26,3.16,9,9,0,0,1,1.54,5.36c0,1.13-.08,2.78-.24,5s-.36,5.74-.59,10.67-.36,8.75-.38,11.44c-1.72,0-3.23-.07-4.54-.07-1.55,0-3.37,0-5.46.07q.32-4.53.6-9.49l.42-8c.12-2,.18-3.76.18-5.17a7.35,7.35,0,0,0-.79-3.8,4.59,4.59,0,0,0-2-1.84,6.57,6.57,0,0,0-2.72-.55,6.71,6.71,0,0,0-2.87.61,7,7,0,0,0-2.39,1.94,9.72,9.72,0,0,0-1.71,3.12,22.88,22.88,0,0,0-.87,5q-.28,3.23-.45,8.46l-.24,9.77c-2,0-3.57-.07-4.86-.07s-3,0-5.18.07q.26-2.7.7-11.07t.46-11.29a11.58,11.58,0,0,0-.25-2.62,5,5,0,0,0-1-2,4.64,4.64,0,0,0-1.77-1.43,5.81,5.81,0,0,0-2.36-.46,6.38,6.38,0,0,0-4.32,1.62,9.29,9.29,0,0,0-2.72,4.33c-.58,1.8-1,5.31-1.25,10.53s-.38,9.35-.38,12.42c-2.15,0-3.78-.07-4.87-.07S118.48,130.29,116.28,130.33Z" transform="translate(-19.99 -7.15)"/><path class="cls-3" d="M212.47,122.35c-.31,1.39-.74,3.87-1.3,7.46-2.53.53-4.67.9-6.4,1.09a50.8,50.8,0,0,1-5.24.28,33.82,33.82,0,0,1-8.24-.92,14.8,14.8,0,0,1-10.43-9.34,21.62,21.62,0,0,1-1.3-7.45,23.92,23.92,0,0,1,1.51-8.37,17.23,17.23,0,0,1,4.24-6.64,15.6,15.6,0,0,1,6.21-3.65,24.36,24.36,0,0,1,7.27-1.07,25.3,25.3,0,0,1,6.82.89A12.85,12.85,0,0,1,211,97.56a13.71,13.71,0,0,1,3.38,4.9,16.45,16.45,0,0,1,1.18,6.36,17.71,17.71,0,0,1-.35,3.41l-25.77,0c0,.87-.07,1.56-.07,2.08a11.42,11.42,0,0,0,.8,4.32,9,9,0,0,0,2.36,3.34,9.6,9.6,0,0,0,3.69,2,14.3,14.3,0,0,0,4.22.65,29,29,0,0,0,5.26-.52A55.92,55.92,0,0,0,212.47,122.35Zm-22.71-14.2,16.45,0a21.36,21.36,0,0,0-.1-2.48,8.82,8.82,0,0,0-.48-1.84,6.4,6.4,0,0,0-1-1.82,5.76,5.76,0,0,0-1.48-1.31,6.89,6.89,0,0,0-2-.81,10,10,0,0,0-2.37-.28,9,9,0,0,0-2.87.46,8.63,8.63,0,0,0-2.55,1.33,7.91,7.91,0,0,0-1.88,2,9.37,9.37,0,0,0-1.07,2.08A22.2,22.2,0,0,0,189.76,108.15Z" transform="translate(-19.99 -7.15)"/><path class="cls-3" d="M220.87,130.33l1-16.7.28-9.7q.08-3,.07-6c0-.35,0-1.47-.07-3.34,2.18,0,3.79.07,4.82.07,1.19,0,2.78,0,4.74-.07l-.17,5a21.07,21.07,0,0,1,2.28-2.83,10.42,10.42,0,0,1,2.13-1.6,9.93,9.93,0,0,1,2.62-1,12.35,12.35,0,0,1,5.84,0q0,3.27.31,8.29a14.71,14.71,0,0,0-3.76-.56,9.77,9.77,0,0,0-3.6.62,8.25,8.25,0,0,0-2.82,1.86,9.87,9.87,0,0,0-2.05,3.08,13.67,13.67,0,0,0-1,3.83c-.18,1.22-.33,3.3-.46,6.26s-.19,5.86-.19,8.71c0,1.11,0,2.49.11,4.15-1.79,0-3.42-.07-4.9-.07S222.89,130.29,220.87,130.33Z" transform="translate(-19.99 -7.15)"/><path class="cls-3" d="M261.12,82.34q-1.15,2-2.51,4.15c-.9,1.46-1.6,2.62-2.09,3.48L253.57,95l-2.5-.07c-.38,0-1.21,0-2.5.07l1.87-5.56q1-3.09,2.28-7.14l3.9.08Z" transform="translate(-19.99 -7.15)"/><path class="cls-3" d="M264.32,129.67l-.77-7.74a38.13,38.13,0,0,0,5.84,1.95,19.43,19.43,0,0,0,4.39.55,10.34,10.34,0,0,0,3.38-.48,4,4,0,0,0,2-1.4,3.27,3.27,0,0,0,.67-2,3.73,3.73,0,0,0-.09-.84,2.92,2.92,0,0,0-.31-.81,5.19,5.19,0,0,0-.53-.79,7.13,7.13,0,0,0-.83-.84c-.35-.32-.85-.72-1.51-1.22l-1.9-1.51c-1.82-1.43-3.22-2.55-4.18-3.37a16.21,16.21,0,0,1-2.42-2.52,9.75,9.75,0,0,1-1.5-2.7,8.44,8.44,0,0,1,1.06-7.79,8.87,8.87,0,0,1,4.55-3.39,20.66,20.66,0,0,1,7-1.07,60.1,60.1,0,0,1,10.62,1.09l.45,7.34a20.83,20.83,0,0,0-7.84-1.65,14.43,14.43,0,0,0-3.56.4,4.07,4.07,0,0,0-2.2,1.24A2.82,2.82,0,0,0,276,104a3.46,3.46,0,0,0,.21,1.18,4.11,4.11,0,0,0,.74,1.21,9.81,9.81,0,0,0,1.21,1.2c.46.37,1.41,1.11,2.87,2.21s2.72,2.1,3.81,3a17.06,17.06,0,0,1,2.69,2.69,10.53,10.53,0,0,1,1.62,2.9,9.19,9.19,0,0,1,.56,3.13,8.2,8.2,0,0,1-1.62,4.89,10.36,10.36,0,0,1-4.88,3.51,20,20,0,0,1-7.31,1.27,46.39,46.39,0,0,1-5.14-.34A50.9,50.9,0,0,1,264.32,129.67Z" transform="translate(-19.99 -7.15)"/></svg>